<svg xmlns="http://www.w3.org/2000/svg" viewBox="0 0 888 600">
  <path fill="none" d="M256.625 283.4h508.537v33.2H256.625z"/>
  <g fill="#2E3440">
    <path d="M259.347 283.397h2.722l12.054 28.73h.086l11.924-28.73h2.722v30.848h-1.901V285.73h-.086l-11.751 28.515h-1.901l-11.881-28.515h-.086v28.515h-1.901v-30.848zm46.181 0l12.184 30.848h-2.031l-3.889-9.894h-14.775l-3.932 9.894h-2.031l12.4-30.848h2.074zm5.66 19.313l-6.61-17.455h-.086l-6.869 17.455h13.565zm8.725-19.313h12.875c5.4 0 9.764 1.987 9.764 7.949 0 4.147-2.506 7.215-6.609 7.906v.087c4.58.519 5.703 3.413 6.005 6.61.302 3.196-.216 6.652 1.036 8.295h-2.117c-1.166-2.117-.475-5.66-.82-8.641-.389-2.981-1.857-5.4-7.258-5.4h-10.974v14.041h-1.901v-30.847zm12.874 15.165c4.492 0 7.863-2.117 7.863-7.085 0-4.666-3.715-6.437-7.863-6.437h-10.974v13.521h10.974zm14.341-15.165h1.901v17.756l19.398-17.756h2.463l-14.085 12.832 14.948 18.016h-2.377l-13.954-16.72-6.394 5.832v10.888h-1.901v-30.848zm26.481 0h10.109c11.017 0 14.257 7.561 14.257 15.381 0 8.727-4.449 15.467-14.343 15.467h-10.023v-30.848zm1.902 29.206h8.295c5.745 0 12.27-3.153 12.27-13.824 0-12.615-8.079-13.738-12.659-13.738h-7.905v27.562zm40.218 2.376c-9.245 0-14.688-7.129-14.688-16.158s5.443-16.158 14.688-16.158c9.203 0 14.646 7.129 14.646 16.158s-5.442 16.158-14.646 16.158zm0-1.641c8.037 0 12.745-6.61 12.745-14.517s-4.708-14.517-12.745-14.517c-8.079 0-12.787 6.61-12.787 14.517s4.708 14.517 12.787 14.517zm15.725-29.941h1.944l8.035 28.816h.087l8.165-28.816h2.376l8.296 28.816h.085l7.907-28.816h2.03l-8.856 30.848h-2.16l-8.468-29.205h-.087l-8.338 29.205h-2.117l-8.899-30.848zm41.385 0h2.376l19.485 28.299h.087v-28.299h1.9v30.848h-2.246l-19.615-28.515h-.086v28.515h-1.901v-30.848zm61.432 8.814c-.216-5.271-4.19-7.906-9.894-7.906-3.5 0-8.469 1.469-8.469 6.567 0 4.968 5.271 5.789 10.499 6.869 5.271 1.08 10.542 2.42 10.542 8.555 0 6.395-6.135 8.684-10.844 8.684-7.216 0-13.092-2.98-13.005-10.931h1.901c-.39 6.739 5.012 9.289 11.104 9.289 3.716 0 8.943-1.685 8.943-7.042 0-5.229-5.271-6.135-10.542-7.216-5.228-1.079-10.499-2.333-10.499-8.208 0-5.92 5.486-8.209 10.369-8.209 6.438 0 11.492 2.765 11.795 9.548h-1.9zm3.755-7.171v-1.643h23.632v1.643h-10.887v29.205h-1.9V285.04h-10.845z"/>
    <path d="M584.642 283.397h2.117l-12.399 17.93v12.918h-1.9v-12.918l-12.313-17.93h2.16l11.146 16.331 11.189-16.331zm3.928 0h1.901v29.205h17.497v1.643H588.57v-30.848zm42.554 29.206v1.643h-20.953v-30.848h20.737v1.643h-18.837v12.355h17.714v1.642h-17.714v13.565h19.053zm42.034-13.479v15.121h-1.643v-6.567h-.086c-1.512 4.493-6.222 7.302-11.665 7.302-9.332 0-14.517-7.129-14.517-15.985 0-8.728 5.271-16.331 14.56-16.331 6.352 0 11.752 3.846 12.832 10.282h-1.815c-1.425-5.313-5.356-8.641-10.973-8.641-8.338 0-12.702 6.999-12.702 14.689 0 7.862 4.233 14.344 12.702 14.344 7.344 0 11.967-5.013 11.664-12.572h-11.362v-1.642h13.005zm7.126-15.727v18.491c0 3.716.776 11.449 9.677 11.449 7.562 0 10.11-4.45 10.11-11.449v-18.491h1.9v18.491c0 7.345-2.766 13.091-12.011 13.091-10.973 0-11.579-8.986-11.579-13.091v-18.491h1.903zm27.129 0h1.9v30.848h-1.9v-30.848zm7.344 0h10.11c11.017 0 14.257 7.561 14.257 15.381 0 8.727-4.45 15.467-14.344 15.467h-10.023v-30.848zm1.901 29.206h8.295c5.746 0 12.27-3.153 12.27-13.824 0-12.615-8.078-13.738-12.658-13.738h-7.906v27.562zm47.866 0v1.643h-20.953v-30.848h20.737v1.643h-18.837v12.355h17.714v1.642h-17.714v13.565h19.053z"/>
  </g>
  <path d="M239.634 347.194h542.477m-542.477-94.386h542.477m-676.222-9.795h113.976v113.976H105.889z" fill="none" stroke="#2E3440" stroke-width="2" stroke-miterlimit="10"/>
  <path d="M167.088 321.924l20.916-42.671h2.017l20.916 42.671h-1.764l-20.16-41.159-20.161 41.159h-1.764zm-9.599 0l-42.672-20.916v-2.016l42.672-20.915v1.764L116.329 300l41.16 20.16v1.764z" fill="#2E3440"/>
</svg>
