<svg xmlns="http://www.w3.org/2000/svg" width="1128.038" height="201.414" viewBox="0 0 1128.038 201.414">
  <path fill="none" d="M252.227 77.768h847.561v55.334H252.227z"/>
  <g fill="#2E3440">
    <path d="M256.764 77.763h4.536l20.09 47.884h.144l19.874-47.884h4.537v51.412h-3.168V81.65h-.144l-19.585 47.524h-3.168L260.076 81.65h-.144v47.524h-3.168V77.763zm76.968 0l20.306 51.412h-3.384l-6.481-16.489h-24.626l-6.553 16.489h-3.384l20.666-51.412h3.456zm9.433 32.186l-11.017-29.091h-.144l-11.449 29.091h22.61zm14.541-32.186h21.458c9.001 0 16.273 3.312 16.273 13.249 0 6.912-4.177 12.024-11.017 13.177v.145c7.633.863 9.505 5.688 10.009 11.017s-.36 11.089 1.728 13.825h-3.528c-1.943-3.528-.792-9.433-1.368-14.401-.647-4.969-3.096-9.001-12.097-9.001h-18.29v23.402h-3.168V77.763zm21.458 25.273c7.488 0 13.105-3.528 13.105-11.809 0-7.776-6.192-10.729-13.105-10.729h-18.29v22.537h18.29zm23.901-25.273h3.169v29.594l32.33-29.594h4.105l-23.474 21.386 24.914 30.026h-3.96l-23.258-27.866-10.656 9.721v18.146h-3.169V77.763zm44.135 0h16.85c18.361 0 23.762 12.601 23.762 25.634 0 14.545-7.416 25.778-23.904 25.778H447.2V77.763zm3.17 48.675h13.824c9.576 0 20.449-5.257 20.449-23.042 0-21.025-13.465-22.897-21.098-22.897H450.37v45.939zm67.031 3.96c-15.408 0-24.48-11.881-24.48-26.93 0-15.05 9.072-26.931 24.48-26.931 15.338 0 24.41 11.881 24.41 26.931.001 15.05-9.072 26.93-24.41 26.93zm0-2.735c13.395 0 21.242-11.018 21.242-24.194 0-13.178-7.848-24.194-21.242-24.194-13.465 0-21.313 11.017-21.313 24.194.001 13.177 7.849 24.194 21.313 24.194zm26.207-49.9h3.24l13.393 48.027h.145l13.609-48.027h3.959l13.826 48.027h.143l13.178-48.027h3.385l-14.762 51.412h-3.6l-14.113-48.676h-.145l-13.896 48.676h-3.529l-14.833-51.412zm68.975 0h3.961l32.475 47.164h.145V77.763h3.168v51.412h-3.744L615.896 81.65h-.143v47.524h-3.17V77.763zM714.97 92.451c-.359-8.784-6.984-13.177-16.49-13.177-5.832 0-14.113 2.448-14.113 10.945 0 8.28 8.785 9.648 17.498 11.448 8.785 1.801 17.57 4.033 17.57 14.258 0 10.657-10.225 14.473-18.074 14.473-12.025 0-21.818-4.968-21.674-18.217h3.168c-.648 11.232 8.354 15.481 18.506 15.481 6.193 0 14.906-2.809 14.906-11.737 0-8.713-8.785-10.225-17.57-12.025-8.713-1.8-17.498-3.888-17.498-13.681 0-9.865 9.145-13.682 17.281-13.682 10.73 0 19.154 4.608 19.658 15.913h-3.168zm6.259-11.952v-2.736h39.387v2.736h-18.145v48.676h-3.168V80.499h-18.074z"/>
    <path d="M798.921 77.763h3.529l-20.666 29.882v21.53h-3.168v-21.53l-20.521-29.882h3.6l18.578 27.218 18.648-27.218zm6.549 0h3.168v48.676H837.8v2.736h-32.33V77.763zm70.922 48.675v2.736H841.47V77.763h34.563v2.736h-31.395v20.594h29.523v2.735h-29.523v22.61h31.754zm70.056-22.465v25.202h-2.736V118.23h-.145c-2.52 7.489-10.369 12.169-19.441 12.169-15.553 0-24.193-11.881-24.193-26.642 0-14.546 8.785-27.219 24.266-27.219 10.586 0 19.586 6.409 21.387 17.138h-3.025c-2.375-8.856-8.928-14.401-18.289-14.401-13.896 0-21.17 11.665-21.17 24.482 0 13.104 7.057 23.906 21.17 23.906 12.24 0 19.945-8.354 19.441-20.954h-18.938v-2.736h21.673zm11.877-26.21v30.818c0 6.192 1.295 19.082 16.129 19.082 12.602 0 16.85-7.417 16.85-19.082V77.763h3.168v30.818c0 12.241-4.609 21.817-20.018 21.817-18.289 0-19.299-14.977-19.299-21.817V77.763h3.17zm45.215 0h3.168v51.412h-3.168V77.763zm12.24 0h16.85c18.361 0 23.762 12.601 23.762 25.634 0 14.545-7.416 25.778-23.906 25.778h-16.705V77.763zm3.168 48.675h13.826c9.576 0 20.449-5.257 20.449-23.042 0-21.025-13.465-22.897-21.098-22.897h-13.178v45.939zm79.778 0v2.736h-34.922V77.763h34.563v2.736h-31.395v20.594h29.523v2.735h-29.523v22.61h31.754z"/>
  </g>
  <path d="M223.909 184.09h904.129M223.909 26.779h904.129M1 10.455h189.959v189.959H1z" fill="none" stroke="#2E3440" stroke-width="2" stroke-miterlimit="10"/>
  <path fill="none" d="M152.916-308.455h98.566v122.887h-98.566z"/>
  <path fill="#2E3440" d="M103 141.973l34.86-71.118h3.361l34.859 71.118h-2.939l-33.6-68.599-33.601 68.599H103zm-16 0l-71.12-34.859v-3.359L87 68.895v2.939l-68.6 33.6 68.6 33.6v2.939z"/>
</svg>
