<svg xmlns="http://www.w3.org/2000/svg" viewBox="0 0 1112.413 201.414">
  <path d="M316.39 112.703h21.458c9.001 0 16.273 3.312 16.273 13.249 0 6.912-4.176 12.024-11.017 13.177v.145c7.633.863 9.505 5.688 10.009 11.017.504 5.328-.36 11.089 1.728 13.825h-3.528c-1.944-3.528-.792-9.433-1.368-14.401-.648-4.969-3.096-9.001-12.097-9.001h-18.29v23.402h-3.168v-51.413zm21.457 25.274c7.489 0 13.105-3.528 13.105-11.809 0-7.776-6.193-10.729-13.105-10.729h-18.29v22.537h18.29zm58.825 23.402v2.736h-34.923v-51.412h34.563v2.736h-31.395v20.594h29.522v2.736h-29.522v22.609h31.755zm5.397-48.676h4.536l20.09 47.884h.144l19.874-47.884h4.536v51.412h-3.168v-47.524h-.145l-19.585 47.524h-3.168l-19.802-47.524h-.144v47.524h-3.168v-51.412zm76.968 0l20.306 51.412h-3.384l-6.48-16.489h-24.626l-6.553 16.489h-3.385l20.666-51.412h3.456zm9.433 32.187l-11.017-29.091h-.144L465.86 144.89h22.61zm14.541-32.187h21.458c9.001 0 16.273 3.312 16.273 13.249 0 6.912-4.177 12.024-11.017 13.177v.145c7.633.863 9.505 5.688 10.009 11.017s-.36 11.089 1.728 13.825h-3.528c-1.943-3.528-.792-9.433-1.368-14.401-.647-4.969-3.096-9.001-12.097-9.001H506.18v23.402h-3.169v-51.413zm21.458 25.274c7.488 0 13.105-3.528 13.105-11.809 0-7.776-6.192-10.729-13.105-10.729H506.18v22.537h18.289zm23.901-25.274h3.169v29.594l32.33-29.594h4.104L564.5 134.089l24.914 30.026h-3.961l-23.258-27.866-10.656 9.721v18.146h-3.169v-51.413zm44.568 33.194v-2.736h15.409v2.736h-15.409zm24.912-33.194h3.169v48.676h29.162v2.736H617.85v-51.412zm36 0h3.169v51.412h-3.169v-51.412zm12.24 0h3.961l32.475 47.164h.144v-47.164h3.169v51.412h-3.745l-32.69-47.524h-.144v47.524h-3.169v-51.412zm43.271 2.736v-2.736h39.387v2.736h-18.146v48.676h-3.168v-48.676h-18.073zm62.928-2.736h21.891c5.832 0 14.977 2.088 14.977 14.401 0 9-5.904 14.112-16.129 14.112h-17.569v22.898h-3.169v-51.411zm3.169 25.778h18.073c9.289 0 12.457-6.121 12.457-11.449 0-3.816-1.729-11.593-12.025-11.593h-18.505v23.042zm39.382-25.778h21.458c9.001 0 16.273 3.312 16.273 13.249 0 6.912-4.177 12.024-11.017 13.177v.145c7.633.863 9.505 5.688 10.009 11.017s-.36 11.089 1.728 13.825h-3.528c-1.943-3.528-.792-9.433-1.368-14.401-.647-4.969-3.096-9.001-12.097-9.001h-18.289v23.402h-3.169v-51.413zm21.458 25.274c7.488 0 13.105-3.528 13.105-11.809 0-7.776-6.192-10.729-13.105-10.729h-18.289v22.537h18.289zm58.824 23.402v2.736h-34.923v-51.412h34.563v2.736h-31.395v20.594h29.522v2.736h-29.522v22.609h31.755zm38.952-33.987c-.359-8.784-6.984-13.177-16.489-13.177-5.832 0-14.113 2.448-14.113 10.945 0 8.28 8.785 9.648 17.498 11.448 8.784 1.801 17.569 4.033 17.569 14.258 0 10.657-10.225 14.473-18.073 14.473-12.025 0-21.818-4.968-21.674-18.217h3.168c-.648 11.232 8.353 15.481 18.506 15.481 6.192 0 14.905-2.809 14.905-11.737 0-8.713-8.785-10.225-17.569-12.025-8.713-1.8-17.498-3.888-17.498-13.681 0-9.865 9.145-13.682 17.281-13.682 10.729 0 19.154 4.608 19.658 15.913h-3.169zm46.728 33.987v2.736h-34.923v-51.412h34.563v2.736h-31.395v20.594h29.522v2.736h-29.522v22.609h31.755zm-.147-45.94v-2.736h39.387v2.736h-18.146v48.676h-3.168v-48.676h-18.073zM375.639 33.368l20.306 51.412h-3.384l-6.481-16.489h-24.626l-6.553 16.489h-3.384l20.666-51.412h3.456zm9.433 32.187l-11.017-29.091h-.144l-11.449 29.091h22.61zm14.54-32.187h21.458c9.001 0 16.273 3.312 16.273 13.249 0 6.912-4.176 12.024-11.017 13.177v.145c7.633.863 9.505 5.688 10.009 11.017.504 5.328-.36 11.089 1.728 13.825h-3.528c-1.944-3.528-.792-9.433-1.368-14.401-.648-4.969-3.096-9.001-12.097-9.001h-18.29V84.78h-3.168V33.368zm21.458 25.274c7.489 0 13.105-3.528 13.105-11.809 0-7.776-6.193-10.729-13.105-10.729h-18.29v22.537h18.29zm63.937-9.937c-1.367-8.641-8.929-13.825-17.498-13.825-13.465 0-21.313 11.017-21.313 24.194s7.848 24.194 21.313 24.194c10.01 0 17.787-8.929 18.361-18.506h3.17c-1.152 12.241-10.226 21.241-21.531 21.241-15.408 0-24.481-11.881-24.481-26.93 0-15.05 9.073-26.931 24.481-26.931 18.219 0 20.594 15.842 20.666 16.562h-3.168zm5.107-12.601v-2.736h39.387v2.736h-18.145V84.78h-3.168V36.104h-18.074zm42.912-2.736h3.17V84.78h-3.17V33.368zm52.278 15.337c-1.369-8.641-8.93-13.825-17.498-13.825-13.465 0-21.314 11.017-21.314 24.194s7.85 24.194 21.314 24.194c10.008 0 17.785-8.929 18.361-18.506h3.168c-1.152 12.241-10.225 21.241-21.529 21.241-15.41 0-24.482-11.881-24.482-26.93 0-15.05 9.072-26.931 24.482-26.931 18.217 0 20.594 15.842 20.666 16.562h-3.168zm30.666-15.337h3.17V84.78h-3.17V33.368zm52.277 15.337c-1.369-8.641-8.93-13.825-17.498-13.825-13.465 0-21.314 11.017-21.314 24.194s7.85 24.194 21.314 24.194c10.008 0 17.785-8.929 18.361-18.506h3.168c-1.152 12.241-10.225 21.241-21.529 21.241-15.41 0-24.482-11.881-24.482-26.93 0-15.05 9.072-26.931 24.482-26.931 18.217 0 20.594 15.842 20.666 16.562h-3.168zm45.574 33.339v2.736h-34.924V33.368h34.564v2.736h-31.395v20.594h29.521v2.735h-29.521v22.61h31.755zm58.967-33.987c-.359-8.784-6.984-13.177-16.49-13.177-5.832 0-14.113 2.448-14.113 10.945 0 8.28 8.785 9.648 17.498 11.448 8.785 1.801 17.57 4.033 17.57 14.258 0 10.657-10.225 14.473-18.074 14.473-12.025 0-21.818-4.968-21.674-18.217h3.168c-.648 11.232 8.354 15.481 18.506 15.481 6.193 0 14.906-2.809 14.906-11.737 0-8.713-8.785-10.225-17.57-12.025-8.713-1.8-17.498-3.888-17.498-13.681 0-9.865 9.145-13.682 17.281-13.682 10.73 0 19.154 4.608 19.658 15.913h-3.168zm6.26-11.953v-2.736h39.387v2.736H800.29V84.78h-3.168V36.104h-18.074zm46.082-2.736v30.818c0 6.192 1.295 19.082 16.129 19.082 12.602 0 16.85-7.417 16.85-19.082V33.368h3.168v30.818c0 12.241-4.609 21.817-20.018 21.817-18.289 0-19.299-14.977-19.299-21.817V33.368h3.17zm45.215 0h16.85c18.361 0 23.762 12.601 23.762 25.634 0 14.545-7.416 25.778-23.906 25.778h-16.705V33.368zm3.168 48.676h13.826c9.576 0 20.449-5.257 20.449-23.042 0-21.025-13.465-22.897-21.098-22.897h-13.178v45.939zm44.855-48.676h3.168V84.78h-3.168V33.368zm34.418 52.636c-15.41 0-24.482-11.881-24.482-26.93 0-15.05 9.072-26.931 24.482-26.931 15.338 0 24.41 11.881 24.41 26.931 0 15.049-9.072 26.93-24.41 26.93zm0-2.735c13.393 0 21.242-11.018 21.242-24.194 0-13.178-7.85-24.194-21.242-24.194-13.465 0-21.314 11.017-21.314 24.194 0 13.176 7.849 24.194 21.314 24.194z" fill="#2E3440"/>
  <path d="M223.909 188.414h888.504M223.909 22.455h888.504M1 10.455h189.959v189.959H1z" fill="none" stroke="#2E3440" stroke-width="2" stroke-miterlimit="10"/>
  <path fill="#2E3440" d="M103 141.973l34.86-71.118h3.361l34.859 71.118h-2.939l-33.6-68.599-33.601 68.599H103zm-16 0l-71.12-34.859v-3.359L87 68.895v2.939l-68.6 33.6 68.6 33.6v2.939z"/>
</svg>
